<svg id="visual" viewBox="0 0 900 600" width="900" height="600" xmlns="http://www.w3.org/2000/svg" xmlns:xlink="http://www.w3.org/1999/xlink" version="1.1" preserveAspectRatio="none"><path d="M0 64L18.8 75.7C37.7 87.3 75.3 110.7 112.8 109C150.3 107.3 187.7 80.7 225.2 78.2C262.7 75.7 300.3 97.3 337.8 100.7C375.3 104 412.7 89 450.2 91.3C487.7 93.7 525.3 113.3 562.8 114C600.3 114.7 637.7 96.3 675.2 93.7C712.7 91 750.3 104 787.8 111.3C825.3 118.7 862.7 120.3 881.3 121.2L900 122L900 601L881.3 601C862.7 601 825.3 601 787.8 601C750.3 601 712.7 601 675.2 601C637.7 601 600.3 601 562.8 601C525.3 601 487.7 601 450.2 601C412.7 601 375.3 601 337.8 601C300.3 601 262.7 601 225.2 601C187.7 601 150.3 601 112.8 601C75.3 601 37.7 601 18.8 601L0 601Z" fill="#cdd6f4"></path><path d="M0 191L18.8 185.3C37.7 179.7 75.3 168.3 112.8 177.5C150.3 186.7 187.7 216.3 225.2 219.5C262.7 222.7 300.3 199.3 337.8 188.3C375.3 177.3 412.7 178.7 450.2 174.8C487.7 171 525.3 162 562.8 163C600.3 164 637.7 175 675.2 179.2C712.7 183.3 750.3 180.7 787.8 188.2C825.3 195.7 862.7 213.3 881.3 222.2L900 231L900 601L881.3 601C862.7 601 825.3 601 787.8 601C750.3 601 712.7 601 675.2 601C637.7 601 600.3 601 562.8 601C525.3 601 487.7 601 450.2 601C412.7 601 375.3 601 337.8 601C300.3 601 262.7 601 225.2 601C187.7 601 150.3 601 112.8 601C75.3 601 37.7 601 18.8 601L0 601Z" fill="#999fb7"></path><path d="M0 311L18.8 306C37.7 301 75.3 291 112.8 292C150.3 293 187.7 305 225.2 314.2C262.7 323.3 300.3 329.7 337.8 335C375.3 340.3 412.7 344.7 450.2 344.7C487.7 344.7 525.3 340.3 562.8 337.7C600.3 335 637.7 334 675.2 334.2C712.7 334.3 750.3 335.7 787.8 338C825.3 340.3 862.7 343.7 881.3 345.3L900 347L900 601L881.3 601C862.7 601 825.3 601 787.8 601C750.3 601 712.7 601 675.2 601C637.7 601 600.3 601 562.8 601C525.3 601 487.7 601 450.2 601C412.7 601 375.3 601 337.8 601C300.3 601 262.7 601 225.2 601C187.7 601 150.3 601 112.8 601C75.3 601 37.7 601 18.8 601L0 601Z" fill="#686b7e"></path><path d="M0 418L18.8 413.8C37.7 409.7 75.3 401.3 112.8 396.3C150.3 391.3 187.7 389.7 225.2 389.7C262.7 389.7 300.3 391.3 337.8 385.8C375.3 380.3 412.7 367.7 450.2 362.2C487.7 356.7 525.3 358.3 562.8 366.5C600.3 374.7 637.7 389.3 675.2 389C712.7 388.7 750.3 373.3 787.8 377C825.3 380.7 862.7 403.3 881.3 414.7L900 426L900 601L881.3 601C862.7 601 825.3 601 787.8 601C750.3 601 712.7 601 675.2 601C637.7 601 600.3 601 562.8 601C525.3 601 487.7 601 450.2 601C412.7 601 375.3 601 337.8 601C300.3 601 262.7 601 225.2 601C187.7 601 150.3 601 112.8 601C75.3 601 37.7 601 18.8 601L0 601Z" fill="#3a3c4a"></path><path d="M0 541L18.8 528C37.7 515 75.3 489 112.8 482C150.3 475 187.7 487 225.2 487.3C262.7 487.7 300.3 476.3 337.8 478.2C375.3 480 412.7 495 450.2 495C487.7 495 525.3 480 562.8 471.3C600.3 462.7 637.7 460.3 675.2 459.3C712.7 458.3 750.3 458.7 787.8 458.5C825.3 458.3 862.7 457.7 881.3 457.3L900 457L900 601L881.3 601C862.7 601 825.3 601 787.8 601C750.3 601 712.7 601 675.2 601C637.7 601 600.3 601 562.8 601C525.3 601 487.7 601 450.2 601C412.7 601 375.3 601 337.8 601C300.3 601 262.7 601 225.2 601C187.7 601 150.3 601 112.8 601C75.3 601 37.7 601 18.8 601L0 601Z" fill="#11111b"></path></svg>