<svg id="visual" preserveAspectRatio="none" viewBox="0 0 900 600" width="900" height="600" xmlns="http://www.w3.org/2000/svg" xmlns:xlink="http://www.w3.org/1999/xlink" version="1.1"><path d="M0 287L75 265.7C150 244.3 300 201.7 450 202.2C600 202.7 750 246.3 825 268.2L900 290L900 601L825 601C750 601 600 601 450 601C300 601 150 601 75 601L0 601Z" fill="#7181b7"></path><path d="M0 227L75 229.5C150 232 300 237 450 253C600 269 750 296 825 309.5L900 323L900 601L825 601C750 601 600 601 450 601C300 601 150 601 75 601L0 601Z" fill="#8796c6"></path><path d="M0 311L75 326.2C150 341.3 300 371.7 450 368.2C600 364.7 750 327.3 825 308.7L900 290L900 601L825 601C750 601 600 601 450 601C300 601 150 601 75 601L0 601Z" fill="#9eabd5"></path><path d="M0 454L75 448.2C150 442.3 300 430.7 450 420.3C600 410 750 401 825 396.5L900 392L900 601L825 601C750 601 600 601 450 601C300 601 150 601 75 601L0 601Z" fill="#b5c0e4"></path><path d="M0 460L75 460.7C150 461.3 300 462.7 450 461C600 459.3 750 454.7 825 452.3L900 450L900 601L825 601C750 601 600 601 450 601C300 601 150 601 75 601L0 601Z" fill="#cdd6f4"></path></svg>